<mxfile host="app.diagrams.net" agent="Mozilla/5.0 (Windows NT 10.0; Win64; x64) AppleWebKit/537.36 (KHTML, like Gecko) Chrome/131.0.0.0 Safari/537.36" version="25.0.3">
  <diagram name="第 1 页" id="Y_Ok6xCKRC-hqFeNP-Aw">
    <mxGraphModel dx="1000" dy="530" grid="1" gridSize="10" guides="1" tooltips="1" connect="1" arrows="1" fold="1" page="1" pageScale="1" pageWidth="827" pageHeight="1169" math="0" shadow="0">
      <root>
        <mxCell id="0" />
        <mxCell id="1" parent="0" />
        <mxCell id="xlkd_qDMQNoMW9FwHgt_-1" value="&lt;div&gt;&lt;br&gt;&lt;/div&gt;" style="rounded=1;whiteSpace=wrap;html=1;" vertex="1" parent="1">
          <mxGeometry x="280" y="40" width="284" height="180" as="geometry" />
        </mxCell>
        <mxCell id="xlkd_qDMQNoMW9FwHgt_-2" value="&lt;font color=&quot;#1930ff&quot; style=&quot;font-size: 14px;&quot; face=&quot;Comic Sans MS&quot;&gt;Service(HashMap)&lt;/font&gt;" style="rounded=1;whiteSpace=wrap;html=1;" vertex="1" parent="1">
          <mxGeometry x="355" y="50" width="134" height="30" as="geometry" />
        </mxCell>
        <mxCell id="xlkd_qDMQNoMW9FwHgt_-3" value="Service" style="rounded=1;whiteSpace=wrap;html=1;" vertex="1" parent="1">
          <mxGeometry x="294" y="130" width="120" height="60" as="geometry" />
        </mxCell>
        <mxCell id="xlkd_qDMQNoMW9FwHgt_-4" value="ServiceImpl" style="rounded=1;whiteSpace=wrap;html=1;" vertex="1" parent="1">
          <mxGeometry x="430" y="130" width="120" height="60" as="geometry" />
        </mxCell>
        <mxCell id="xlkd_qDMQNoMW9FwHgt_-5" value="key" style="rounded=1;whiteSpace=wrap;html=1;" vertex="1" parent="1">
          <mxGeometry x="314" y="90" width="80" height="30" as="geometry" />
        </mxCell>
        <mxCell id="xlkd_qDMQNoMW9FwHgt_-6" value="value" style="rounded=1;whiteSpace=wrap;html=1;" vertex="1" parent="1">
          <mxGeometry x="450" y="90" width="80" height="30" as="geometry" />
        </mxCell>
        <mxCell id="xlkd_qDMQNoMW9FwHgt_-7" value="" style="rounded=1;whiteSpace=wrap;html=1;" vertex="1" parent="1">
          <mxGeometry x="50" y="240" width="290" height="520" as="geometry" />
        </mxCell>
        <mxCell id="xlkd_qDMQNoMW9FwHgt_-8" value="" style="rounded=1;whiteSpace=wrap;html=1;" vertex="1" parent="1">
          <mxGeometry x="490" y="240" width="290" height="520" as="geometry" />
        </mxCell>
        <mxCell id="xlkd_qDMQNoMW9FwHgt_-9" value="&lt;font face=&quot;Comic Sans MS&quot; color=&quot;#1930ff&quot; style=&quot;font-size: 14px;&quot;&gt;Server&lt;/font&gt;" style="rounded=1;whiteSpace=wrap;html=1;" vertex="1" parent="1">
          <mxGeometry x="140" y="250" width="110" height="30" as="geometry" />
        </mxCell>
        <mxCell id="xlkd_qDMQNoMW9FwHgt_-10" value="&lt;font style=&quot;font-size: 14px;&quot; color=&quot;#1930ff&quot; face=&quot;Comic Sans MS&quot;&gt;Client&lt;/font&gt;" style="rounded=1;whiteSpace=wrap;html=1;" vertex="1" parent="1">
          <mxGeometry x="580" y="250" width="110" height="30" as="geometry" />
        </mxCell>
        <mxCell id="xlkd_qDMQNoMW9FwHgt_-12" value="&lt;h2&gt;&lt;font color=&quot;#ff1f4b&quot; style=&quot;font-size: 18px;&quot; face=&quot;Comic Sans MS&quot;&gt;MyRPC&lt;br&gt;version1.0&lt;/font&gt;&lt;/h2&gt;" style="ellipse;whiteSpace=wrap;html=1;" vertex="1" parent="1">
          <mxGeometry x="30" y="10" width="120" height="80" as="geometry" />
        </mxCell>
        <mxCell id="xlkd_qDMQNoMW9FwHgt_-23" value="" style="edgeStyle=orthogonalEdgeStyle;rounded=0;orthogonalLoop=1;jettySize=auto;html=1;entryX=-0.011;entryY=0.425;entryDx=0;entryDy=0;entryPerimeter=0;" edge="1" parent="1" source="xlkd_qDMQNoMW9FwHgt_-14" target="xlkd_qDMQNoMW9FwHgt_-1">
          <mxGeometry relative="1" as="geometry">
            <mxPoint x="60" y="130" as="targetPoint" />
            <Array as="points">
              <mxPoint x="20" y="320" />
              <mxPoint x="20" y="116" />
            </Array>
          </mxGeometry>
        </mxCell>
        <mxCell id="xlkd_qDMQNoMW9FwHgt_-14" value="1. 注册服务(UserServiceImpl)" style="rounded=1;whiteSpace=wrap;html=1;" vertex="1" parent="1">
          <mxGeometry x="130" y="300" width="120" height="40" as="geometry" />
        </mxCell>
        <mxCell id="xlkd_qDMQNoMW9FwHgt_-27" value="2. 监听端口" style="rounded=1;whiteSpace=wrap;html=1;" vertex="1" parent="1">
          <mxGeometry x="130" y="380" width="120" height="40" as="geometry" />
        </mxCell>
      </root>
    </mxGraphModel>
  </diagram>
</mxfile>
